<svg width="50" height="40" viewBox="0 0 50 40" fill="none" xmlns="http://www.w3.org/2000/svg">
    <path d="M0.07665 30.4063C0.85004 35.5561 8.63152 39.4391 18.1772 39.4391C26.7591 39.4391 34.0492 36.2804 35.9078 31.7573L35.9095 31.7551C36.2003 31.0569 36.3504 30.3268 36.3544 29.5912C36.35 29.3695 36.3306 29.1485 36.2964 28.9287L36.2867 28.8586V28.8583C35.9486 26.909 34.7379 25.1236 32.8772 23.831C34.9957 24.5746 37.2783 24.9739 39.5924 25.0064C41.5136 25.0351 43.4097 24.6554 45.086 23.9066L45.0868 23.9057C45.7303 23.6142 46.3234 23.257 46.8507 22.8429C47.2472 22.5208 47.6014 22.1675 47.9089 21.7885L47.9097 21.7875C51.3946 17.6052 49.1648 10.5767 42.7223 5.43872C36.7567 0.68081 28.5548 -1.25459 23.2182 0.83751C22.36 1.16861 21.5762 1.61006 20.898 2.14419C20.6507 2.34626 20.4199 2.56055 20.2065 2.78611L20.2061 2.78643C16.2363 6.86348 18.3547 14.2271 25.0292 19.5503C25.6888 20.0748 26.3827 20.5713 27.1073 21.0378C24.2558 20.1726 21.2284 19.7337 18.1772 19.7434C9.65461 19.7434 2.18138 23.0083 0.40747 27.5065C0.13959 28.1806 0.002017 28.8837 0 29.5912C0.004841 29.8638 0.030257 30.1357 0.07625 30.4059L0.07665 30.4063ZM18.1772 38.1212C10.14 38.1212 3.27953 35.0776 1.9139 31.0565C1.94658 31.0591 1.98007 31.062 2.01194 31.0646C2.30725 31.0913 2.58845 31.1206 2.85108 31.154C2.88941 31.1589 2.92491 31.1643 2.96284 31.1695C3.20813 31.202 3.44212 31.237 3.66764 31.2744C3.70516 31.2805 3.74429 31.2863 3.78181 31.2927C4.02307 31.3339 4.25585 31.377 4.4846 31.4217C4.53422 31.4314 4.58344 31.4414 4.63226 31.451C4.85253 31.4951 5.07039 31.5395 5.29026 31.5852C7.4204 32.0672 9.62801 32.296 11.8417 32.2638C14.0529 32.2963 16.2581 32.0669 18.385 31.5836C20.3755 31.1276 22.4407 30.9127 24.5112 30.9459C26.5824 30.9127 28.6484 31.1276 30.6398 31.5833C30.8467 31.6261 31.0565 31.6692 31.2695 31.712C31.3188 31.7219 31.368 31.7316 31.4176 31.7416C31.6435 31.7863 31.8755 31.8301 32.1168 31.8722C32.1462 31.8774 32.1777 31.8822 32.2075 31.8873C32.4306 31.9253 32.6634 31.9617 32.9063 31.9961C32.9494 32.0022 32.9906 32.0086 33.0342 32.0144C33.2976 32.0505 33.576 32.083 33.8701 32.1126C33.8963 32.1155 33.9181 32.119 33.9447 32.1216C31.8093 35.6417 25.4092 38.1212 18.1772 38.1212ZM41.5539 6.37087C46.9668 10.6883 49.2329 16.5956 47.0665 20.2987C47.0443 20.2781 47.0217 20.2575 47.0003 20.2369C46.7813 20.0313 46.5783 19.8328 46.3976 19.6443C46.3815 19.6275 46.3677 19.6118 46.352 19.5953C46.1797 19.4139 46.0224 19.2388 45.8751 19.0683C45.8513 19.0406 45.8263 19.0123 45.8029 18.985C45.6528 18.8083 45.5125 18.6355 45.3773 18.4644C45.3515 18.4315 45.3261 18.399 45.3002 18.3662C45.1699 18.1995 45.0424 18.0335 44.9146 17.8659C43.8079 16.3375 42.4237 14.9484 40.8076 13.7434C39.2495 12.4928 37.4667 11.4335 35.5185 10.6008C33.6926 9.82307 32.0236 8.83171 30.5667 7.6592C29.0527 6.53368 27.7584 5.23343 26.7272 3.80223C26.6224 3.6642 26.5154 3.52455 26.4065 3.38394L26.323 3.2768C26.206 3.12685 26.0854 2.97498 25.9563 2.81893C25.9422 2.80155 25.9264 2.78353 25.9119 2.76616C25.7953 2.62587 25.671 2.48204 25.5391 2.33435C25.5085 2.30025 25.479 2.26646 25.4475 2.23171C25.3003 2.06954 25.143 1.90255 24.9719 1.72944C24.9606 1.71753 24.9513 1.70691 24.9396 1.69533C29.661 0.42855 36.4432 2.29445 41.5539 6.37087ZM22.0663 3.07602C22.4633 2.7623 22.9075 2.4888 23.3884 2.26228C23.4025 2.27547 23.4142 2.28802 23.4279 2.30121C23.6103 2.47818 23.7761 2.64743 23.9306 2.81153C23.9556 2.83823 23.9827 2.8659 24.0073 2.89229C24.1618 3.05961 24.3038 3.22145 24.4381 3.37976C24.4648 3.41129 24.4914 3.4425 24.5172 3.47371C24.6483 3.63073 24.7738 3.7855 24.8936 3.93866C24.9154 3.96633 24.9368 3.994 24.9582 4.02168C25.0784 4.17644 25.1962 4.33025 25.3148 4.4863C26.4194 6.01307 27.8016 7.40115 29.4161 8.60519C30.9742 9.85557 32.757 10.9148 34.7052 11.7479C36.5312 12.5253 38.2002 13.5166 39.657 14.6894C41.1731 15.8162 42.4693 17.1178 43.5029 18.5506C43.5881 18.6619 43.6736 18.7739 43.7603 18.8868C43.7898 18.9248 43.8204 18.9637 43.8503 19.002C43.9112 19.0802 43.9721 19.1584 44.0351 19.2375C44.0722 19.2842 44.1113 19.3315 44.1492 19.3785C44.2085 19.4522 44.2687 19.5258 44.3316 19.6011C44.3736 19.6513 44.4175 19.7028 44.4615 19.754C44.524 19.8273 44.5886 19.9017 44.6552 19.977C44.7036 20.0313 44.7536 20.0867 44.804 20.1423C44.8726 20.2173 44.9432 20.2936 45.0166 20.3708C45.0719 20.429 45.1284 20.4882 45.1865 20.5478C45.2627 20.626 45.3434 20.7061 45.4253 20.7868C45.4878 20.8486 45.5504 20.9104 45.6169 20.9738C45.7033 21.0568 45.7961 21.1424 45.8893 21.2283C45.9611 21.2943 46.0309 21.3596 46.1063 21.4271C46.1249 21.4439 46.1406 21.4593 46.1596 21.4761C46.0119 21.6286 45.8525 21.774 45.6823 21.9111C45.4152 22.1222 45.1248 22.3139 44.8145 22.4841L44.7859 22.459C44.733 22.4111 44.6858 22.3657 44.6354 22.3191C44.5398 22.2306 44.4446 22.1427 44.3566 22.0578C44.3021 22.005 44.2513 21.9542 44.1993 21.9027C44.123 21.8268 44.0476 21.7515 43.9766 21.6781C43.9257 21.6257 43.8773 21.5745 43.8289 21.523C43.7632 21.4532 43.699 21.384 43.6373 21.3158C43.5917 21.2659 43.5473 21.2164 43.5041 21.1672C43.4436 21.0986 43.3847 21.0307 43.3278 20.9635C43.2887 20.9175 43.2492 20.8715 43.2113 20.8258C43.1536 20.7559 43.0971 20.6868 43.0414 20.6179C43.0075 20.5761 42.9732 20.5339 42.9401 20.4921C42.8804 20.4171 42.8223 20.3425 42.7646 20.2682C42.7372 20.2331 42.7094 20.1977 42.6823 20.1623C42.6004 20.0561 42.519 19.9499 42.4379 19.8434C41.33 18.3151 39.9454 16.9257 38.3289 15.7204C36.7708 14.4697 34.988 13.4104 33.0398 12.5777C31.2139 11.8003 29.5448 10.8086 28.088 9.63607C26.5727 8.50962 25.2773 7.20874 24.2445 5.77689C24.117 5.6099 23.9867 5.44065 23.8536 5.26947C23.8253 5.23343 23.7975 5.1974 23.7688 5.16104C23.6329 4.98857 23.4885 4.81225 23.3356 4.63142C23.3037 4.59345 23.271 4.55548 23.2379 4.51719C23.0786 4.33218 22.9071 4.14169 22.7191 3.94317C22.6876 3.91035 22.6537 3.87624 22.6219 3.8431C22.4181 3.6317 22.1999 3.41419 21.9522 3.18316L21.9457 3.17673C21.9857 3.14198 22.0256 3.10851 22.0663 3.07602ZM26.1975 18.6185C20.4712 14.0511 18.3079 7.95104 20.9416 4.2749C20.9613 4.29421 20.9823 4.31384 21.0017 4.33282C21.1792 4.50722 21.345 4.67582 21.4963 4.83831C21.5249 4.86888 21.5508 4.89848 21.5786 4.92873C21.715 5.0777 21.8432 5.22314 21.9635 5.36504C21.9849 5.39078 22.0078 5.41652 22.0288 5.44194C22.1616 5.60057 22.2866 5.7563 22.4081 5.91107C22.4347 5.94485 22.4605 5.97832 22.4867 6.01178C22.6029 6.1614 22.7175 6.3107 22.8325 6.4616C23.9387 7.98869 25.3221 9.37737 26.9374 10.5821C28.4955 11.8325 30.2783 12.8917 32.2265 13.7245C34.0524 14.5022 35.7215 15.4935 37.1783 16.666C38.6948 17.7935 39.9918 19.0953 41.0262 20.5281C41.1533 20.6948 41.2832 20.8631 41.416 21.0336C41.447 21.0735 41.4777 21.1131 41.5096 21.153C41.6479 21.328 41.7936 21.5069 41.9497 21.6907C41.9812 21.7277 42.0147 21.7656 42.0469 21.8033C42.2087 21.9902 42.3802 22.182 42.5718 22.3831L42.5964 22.4101C42.7909 22.6132 43.0111 22.8281 43.2459 23.0498C43.2762 23.0781 43.2984 23.1032 43.3295 23.1322C38.6395 24.6802 31.4995 22.8461 26.1975 18.6185ZM18.1772 21.0613C26.2859 21.0613 33.16 24.138 34.4623 28.2009C34.4301 28.198 34.397 28.1954 34.3655 28.1928C34.0653 28.1661 33.7797 28.1365 33.5134 28.1028C33.4779 28.0983 33.4449 28.0931 33.4098 28.0886C33.1649 28.0564 32.9313 28.0213 32.7066 27.9843C32.6618 27.9769 32.6154 27.9702 32.5714 27.9625C32.3346 27.9222 32.1059 27.8798 31.8811 27.836C31.8222 27.8244 31.7629 27.8128 31.7044 27.8009C31.4902 27.7581 31.2776 27.715 31.0634 27.6706C28.9332 27.1886 26.7252 26.9599 24.5112 26.992C22.2999 26.9595 20.0948 27.1886 17.9678 27.6722C15.9773 28.1279 13.9121 28.3428 11.8417 28.31C9.77001 28.3428 7.70402 28.1279 5.71226 27.6726C5.50771 27.6301 5.30075 27.5876 5.09096 27.5455C5.03368 27.5339 4.97639 27.5226 4.91829 27.511C4.69479 27.467 4.46564 27.4238 4.2268 27.3823C4.18928 27.3756 4.14975 27.3695 4.11142 27.363C3.89074 27.3257 3.66038 27.29 3.42033 27.2562C3.37596 27.2501 3.33359 27.2433 3.28841 27.2372C3.02335 27.2015 2.74216 27.1693 2.44684 27.1397C2.41699 27.1368 2.39197 27.133 2.36172 27.1301C4.45232 23.5701 10.8746 21.0613 18.1772 21.0613ZM1.81506 28.4078L1.84612 28.4107C2.16565 28.4367 2.46056 28.4683 2.74175 28.5024C2.78169 28.5075 2.82405 28.5117 2.86359 28.5169C3.1347 28.5516 3.38967 28.5896 3.63617 28.6301C3.68579 28.6382 3.73582 28.6462 3.78464 28.6549C4.02266 28.6954 4.25303 28.7376 4.47855 28.7817C4.53059 28.792 4.58183 28.8023 4.63347 28.8126C4.85495 28.857 5.07483 28.902 5.29591 28.948C7.42363 29.431 9.62961 29.6601 11.8417 29.6279C14.0529 29.6604 16.2581 29.431 18.385 28.9477C20.3755 28.4918 22.4407 28.2768 24.5112 28.31C26.5852 28.2772 28.6537 28.4918 30.6482 28.9464C30.7947 28.9767 30.9419 29.0069 31.0904 29.0372C31.1469 29.0487 31.2046 29.06 31.2615 29.0713C31.3631 29.0919 31.4652 29.1121 31.5693 29.1321C31.6298 29.1437 31.6923 29.1552 31.7541 29.1668C31.8569 29.1861 31.961 29.2051 32.0671 29.2238C32.1329 29.2354 32.1999 29.2466 32.2672 29.2579C32.3729 29.2759 32.4811 29.2933 32.5912 29.3103C32.6622 29.3213 32.734 29.3322 32.8066 29.3428C32.9204 29.3592 33.0378 29.3753 33.1564 29.3908C33.2306 29.4004 33.3045 29.4101 33.3807 29.4194C33.509 29.4352 33.643 29.4493 33.7785 29.4638C33.8515 29.4715 33.9229 29.4796 33.9988 29.4867C34.1569 29.5018 34.3227 29.5153 34.4914 29.5285C34.5523 29.533 34.6092 29.5385 34.6717 29.543L34.7016 29.5455C34.702 29.5607 34.702 29.5761 34.702 29.5912C34.7004 30.014 34.6374 30.4352 34.5144 30.8464L34.4809 30.8432C34.167 30.8171 33.8773 30.7859 33.6006 30.7521C33.5578 30.7467 33.513 30.7422 33.4711 30.7367C33.2044 30.7023 32.9531 30.6646 32.7106 30.6247C32.6582 30.6164 32.6061 30.6077 32.5545 30.599C32.3205 30.5588 32.0929 30.5169 31.8707 30.4735C31.817 30.4629 31.7637 30.4519 31.7105 30.4413C31.4918 30.3976 31.2752 30.3532 31.0565 30.3078C28.9288 29.8245 26.7232 29.5954 24.5112 29.6279C22.2999 29.5954 20.0948 29.8245 17.9678 30.3081C15.9773 30.7637 13.9121 30.9787 11.8417 30.9459C9.76801 30.9783 7.69958 30.7637 5.7054 30.3094C5.55572 30.2785 5.40524 30.2473 5.25355 30.2164C5.20877 30.2074 5.16237 30.1984 5.11678 30.1891C5.00745 30.1672 4.89731 30.1453 4.78475 30.1234C4.72263 30.1115 4.65848 30.0999 4.59514 30.088C4.49589 30.0694 4.39584 30.051 4.29377 30.033C4.22357 30.0205 4.15136 30.0086 4.07914 29.9963C3.9795 29.9796 3.87783 29.9632 3.77455 29.9471C3.69709 29.9349 3.61882 29.9233 3.53894 29.9117C3.43486 29.8966 3.32754 29.8821 3.21902 29.8676C3.1351 29.8567 3.05119 29.8454 2.96405 29.8351C2.85229 29.8213 2.7353 29.8087 2.6179 29.7965C2.52753 29.7869 2.43837 29.7769 2.34477 29.7679C2.21527 29.7557 2.07891 29.7447 1.94255 29.7338C1.85379 29.7267 1.76866 29.7186 1.67628 29.7122L1.6553 29.7106C1.65369 29.6707 1.65248 29.6308 1.65248 29.5912C1.65328 29.1932 1.70775 28.7965 1.81506 28.4078Z" fill="white"/>
    <path d="M9.46861 33.9436C9.12891 33.8037 8.8062 33.6566 8.50039 33.5025C8.1143 33.3098 7.60557 33.4028 7.3631 33.71C7.12064 34.0173 7.23562 34.4234 7.62009 34.6177C7.96382 34.7905 8.32651 34.9559 8.70856 35.1142C9.11401 35.2815 9.61271 35.1551 9.82241 34.832C10.0322 34.5087 9.87411 34.111 9.46861 33.9436Z" fill="white"/>
    <path d="M28.9502 32.8709C26.3678 34.5325 22.4411 35.4852 18.1772 35.4852C16.022 35.499 13.8778 35.2419 11.8231 34.7233C11.3898 34.6113 10.9246 34.8005 10.7834 35.1461C10.6422 35.4916 10.8786 35.863 11.3115 35.9762C13.5312 36.538 15.8482 36.817 18.1772 36.8031C22.8119 36.8031 27.1165 35.7439 29.9878 33.8967C30.3428 33.6679 30.3985 33.2531 30.1121 32.97C29.8256 32.6865 29.3052 32.6421 28.9502 32.8709Z" fill="white"/>
    <path d="M23.6268 10.3401C23.5356 10.0805 23.4582 9.82397 23.3948 9.57107C23.3053 9.21427 22.87 8.9829 22.4226 9.05433C21.9752 9.12577 21.6851 9.47297 21.7746 9.82977C21.8461 10.1139 21.9332 10.4022 22.0357 10.6954C22.1587 11.0458 22.6146 11.2501 23.0539 11.1523C23.4933 11.0541 23.7499 10.6905 23.6268 10.3401Z" fill="white"/>
    <path d="M39.8277 21.7202C39.8559 21.357 39.5093 21.0442 39.0539 21.022C35.6561 20.855 31.6254 19.2198 28.5347 16.7545C26.9786 15.5286 25.6836 14.1083 24.7012 12.5497C24.4979 12.2244 24.0033 12.0918 23.595 12.253C23.1867 12.4142 23.0193 12.8087 23.2206 13.1346C24.2829 14.8216 25.6832 16.359 27.3663 17.6863C30.781 20.41 35.1123 22.1488 38.9522 22.3374C38.9695 22.3383 38.9869 22.3387 39.0038 22.3387C39.44 22.338 39.8006 22.0674 39.8277 21.7202Z" fill="white"/>
</svg>